<svg width="55" height="55" viewBox="0 0 55 55" fill="none" xmlns="http://www.w3.org/2000/svg">
<g clip-path="url(#clip0)">
<path d="M15.6117 55C9.04108 55 3.69508 49.654 3.69508 43.0833C3.69508 42.5773 4.10575 42.1667 4.61175 42.1667H10.1117C10.6177 42.1667 11.0284 42.5773 11.0284 43.0833C11.0284 45.5675 13.1276 47.6667 15.6117 47.6667C18.0959 47.6667 20.1951 45.5675 20.1951 43.0833V26.5833H13.7784C13.2724 26.5833 12.8617 26.1727 12.8617 25.6667V20.1667C12.8617 19.6607 13.2724 19.25 13.7784 19.25H20.1951V11.9167C20.1951 5.346 25.4357 0 31.8771 0C38.4642 0 44.0284 5.45692 44.0284 11.9167C44.0284 12.4227 43.6177 12.8333 43.1117 12.8333H37.6117C37.1057 12.8333 36.6951 12.4227 36.6951 11.9167C36.6951 9.44992 34.4437 7.28658 31.8771 7.28658C29.4387 7.28658 27.5284 9.32067 27.5284 11.9167V19.25H33.9451C34.4511 19.25 34.8617 19.6607 34.8617 20.1667V25.6667C34.8617 26.1727 34.4511 26.5833 33.9451 26.5833H27.5284V43.0833C27.5284 49.654 22.1824 55 15.6117 55ZM5.5715 44C6.05183 49.0554 10.4546 53.1667 15.6117 53.1667C21.0778 53.1667 25.6951 48.5485 25.6951 43.0833V25.6667C25.6951 25.1607 26.1057 24.75 26.6117 24.75H33.0284V21.0833H26.6117C26.1057 21.0833 25.6951 20.6727 25.6951 20.1667V11.9167C25.6951 8.29217 28.4102 5.45325 31.8771 5.45325C35.1019 5.45325 37.9665 7.95483 38.4551 11H42.1511C41.6588 5.94458 37.1543 1.83333 31.8771 1.83333C26.4477 1.83333 22.0284 6.35708 22.0284 11.9167V20.1667C22.0284 20.6727 21.6177 21.0833 21.1117 21.0833H14.6951V24.75H21.1117C21.6177 24.75 22.0284 25.1607 22.0284 25.6667V43.0833C22.0284 46.6217 19.1501 49.5 15.6117 49.5C12.3851 49.5 9.70658 47.1057 9.26016 44H5.5715Z" fill="#424283"/>
<path d="M47.8014 55C46.8508 55 45.9562 54.6297 45.2842 53.9569L42.1942 50.8668L39.1041 53.9569C37.7593 55.3016 35.4145 55.3025 34.0697 53.9569C32.6819 52.569 32.6819 50.3104 34.0697 48.9225L37.1598 45.8324L34.0697 42.7423C32.6819 41.3545 32.6819 39.0958 34.0697 37.708C35.4145 36.3633 37.7593 36.3623 39.1041 37.708L42.1932 40.7981L45.2833 37.708C46.6281 36.3633 48.9738 36.3633 50.3176 37.708C51.7055 39.0958 51.7055 41.3545 50.3176 42.7423L47.2276 45.8324L50.3176 48.9225C51.7055 50.3104 51.7055 52.569 50.3176 53.9569C49.6467 54.6297 48.7529 55 47.8014 55ZM42.1951 48.6549C42.4297 48.6549 42.6644 48.7447 42.8432 48.9234L46.5813 52.6616C47.234 53.3143 48.3707 53.3134 49.0233 52.6616C49.6962 51.9888 49.6962 50.8934 49.0233 50.2196L45.2852 46.4814C45.1128 46.3091 45.0166 46.0763 45.0166 45.8333C45.0166 45.5904 45.1128 45.3567 45.2852 45.1853L49.0233 41.4471C49.6962 40.7743 49.6962 39.6788 49.0233 39.0051C48.3707 38.3524 47.234 38.3543 46.5813 39.0051L42.8432 42.7433C42.4857 43.1017 41.9045 43.1017 41.547 42.7433L37.8088 39.0051C37.1571 38.3533 36.0195 38.3533 35.3668 39.0051C34.694 39.6779 34.694 40.7733 35.3668 41.4471L39.105 45.1853C39.2773 45.3576 39.3736 45.5904 39.3736 45.8333C39.3736 46.0763 39.2773 46.31 39.105 46.4814L35.3668 50.2196C34.694 50.8924 34.694 51.9879 35.3668 52.6616C36.0195 53.3143 37.1562 53.3134 37.8088 52.6616L41.547 48.9234C41.7257 48.7438 41.9604 48.6549 42.1951 48.6549Z" fill="#424283"/>
</g>
<defs>
<clipPath id="clip0">
<rect width="55" height="55" fill="white"/>
</clipPath>
</defs>
</svg>
