<svg width="55" height="55" viewBox="0 0 55 55" fill="none" xmlns="http://www.w3.org/2000/svg">
<path d="M27.5 9.16663C24.9723 9.16663 22.9166 11.2221 22.9166 13.75C22.9166 16.2778 24.9721 18.3334 27.5 18.3334C30.0278 18.3334 32.0834 16.2778 32.0834 13.75C32.0834 11.2221 30.0277 9.16663 27.5 9.16663ZM27.5 16.0416C26.2367 16.0416 25.2084 15.0133 25.2084 13.75C25.2084 12.4867 26.2367 11.4584 27.5 11.4584C28.7633 11.4584 29.7916 12.4867 29.7916 13.75C29.7916 15.0133 28.7633 16.0416 27.5 16.0416Z" fill="#424283"/>
<path d="M30.9375 20.625H21.7709C21.1375 20.625 20.625 21.1375 20.625 21.7709V26.3542C20.625 26.9876 21.1375 27.5001 21.7709 27.5001H22.9167V44.6876C22.9167 45.321 23.4292 45.8335 24.0626 45.8335H30.9376C31.571 45.8335 32.0835 45.321 32.0835 44.6876V21.7709C32.0834 21.1375 31.5709 20.625 30.9375 20.625ZM29.7916 43.5416H25.2083V26.3541C25.2083 25.7208 24.6958 25.2083 24.0624 25.2083H22.9165V22.9166H29.7915V43.5416H29.7916Z" fill="#424283"/>
<path d="M27.5 0C12.3368 0 0 12.3368 0 27.5C0 42.6632 12.3368 55 27.5 55C42.6632 55 55 42.6632 55 27.5C55 12.3368 42.6632 0 27.5 0ZM27.5 52.7084C13.6 52.7084 2.29163 41.4 2.29163 27.5C2.29163 13.6 13.6 2.29163 27.5 2.29163C41.4 2.29163 52.7084 13.6 52.7084 27.5C52.7084 41.4 41.4 52.7084 27.5 52.7084Z" fill="#424283"/>
</svg>
