<svg width="12" height="12" viewBox="0 0 12 12" fill="none" xmlns="http://www.w3.org/2000/svg">
<path d="M9.33353 5.53176L3.99338 0.191706C3.86987 0.068097 3.70499 0 3.52919 0C3.35339 0 3.18851 0.068097 3.065 0.191706L2.67173 0.584873C2.41583 0.841066 2.41583 1.25745 2.67173 1.51326L7.15599 5.99751L2.66676 10.4867C2.54325 10.6104 2.47505 10.7751 2.47505 10.9508C2.47505 11.1267 2.54325 11.2915 2.66676 11.4152L3.06002 11.8083C3.18363 11.9319 3.34841 12 3.52421 12C3.70002 12 3.86489 11.9319 3.98841 11.8083L9.33353 6.46336C9.45734 6.33936 9.52534 6.1738 9.52495 5.99781C9.52534 5.82112 9.45734 5.65566 9.33353 5.53176Z" fill="white"/>
</svg>
