<svg width="419" height="471" viewBox="0 0 419 471" fill="none" xmlns="http://www.w3.org/2000/svg">
<g opacity="0.1">
<path opacity="0.1" d="M358.304 247C363.642 241.072 368.595 235.115 373.111 229.156C401.418 191.807 409.656 158.508 396.31 135.392C382.964 112.276 350.01 102.763 303.508 108.601C296.09 109.533 288.454 110.844 280.651 112.503C278.186 104.916 275.504 97.647 272.601 90.757C271.989 89.304 271.369 87.878 270.742 86.469C275.627 82.369 278.734 76.22 278.734 69.344C278.734 56.999 268.726 46.991 256.381 46.991C253.416 46.991 250.588 47.574 247.999 48.622C234.372 32.388 219.044 23.784 203 23.784C176.308 23.784 151.589 47.569 133.397 90.757C130.495 97.647 127.812 104.916 125.347 112.503C117.544 110.844 109.909 109.533 102.49 108.601C55.985 102.762 23.034 112.276 9.68802 135.392C-3.65798 158.508 4.58102 191.808 32.887 229.156C37.403 235.114 42.356 241.072 47.694 247C42.532 252.733 37.736 258.493 33.341 264.255C31.222 263.588 28.967 263.228 26.628 263.228C14.283 263.228 4.27502 273.236 4.27502 285.581C4.27502 291.815 6.82902 297.451 10.946 301.505C1.47202 323.782 0.907023 343.4 9.68702 358.608C20.467 377.28 44.041 387.077 77.212 387.077C85.108 387.077 93.548 386.521 102.488 385.399C109.906 384.467 117.542 383.156 125.345 381.497C127.81 389.084 130.492 396.353 133.395 403.243C151.586 446.431 176.305 470.216 202.998 470.216C229.691 470.216 254.409 446.431 272.601 403.243C275.503 396.353 278.186 389.084 280.651 381.497C288.454 383.156 296.089 384.467 303.508 385.399C312.451 386.522 320.887 387.077 328.784 387.077C361.952 387.076 385.53 377.278 396.309 358.608C409.655 335.492 401.416 302.192 373.11 264.844C368.595 258.885 363.642 252.928 358.304 247ZM304.755 118.523C313.134 117.471 321.048 116.953 328.439 116.953C357.775 116.953 378.83 125.114 387.651 140.392C398.694 159.519 390.49 189.671 365.142 223.116C360.959 228.635 356.392 234.156 351.472 239.655C335.946 223.471 317.578 207.607 297.086 192.68C294.404 167.47 289.85 143.631 283.597 122.093C290.818 120.581 297.884 119.386 304.755 118.523ZM180.94 354.046C164.279 360.6 147.902 365.855 132.166 369.689C126.723 351.083 122.588 330.663 119.876 309.07C130.929 316.668 142.515 323.987 154.543 330.931C163.403 336.046 172.32 340.849 181.241 345.336C180.857 346.977 180.648 348.685 180.648 350.444C180.647 351.671 180.75 352.873 180.94 354.046ZM224.76 345.336C233.682 340.849 242.598 336.047 251.458 330.931C263.486 323.987 275.072 316.668 286.125 309.07C283.413 330.663 279.277 351.083 273.835 369.689C258.098 365.854 241.722 360.6 225.061 354.046C225.251 352.873 225.354 351.671 225.354 350.444C225.353 348.686 225.143 346.978 224.76 345.336ZM246.458 322.271C237.79 327.275 229.073 331.973 220.355 336.36C216.257 331.316 210.006 328.09 203 328.09C195.994 328.09 189.743 331.316 185.645 336.36C176.927 331.972 168.21 327.275 159.542 322.271C145.118 313.943 131.347 305.079 118.407 295.839C116.875 280.013 116.084 263.655 116.084 246.999C116.084 230.343 116.876 213.986 118.407 198.159C131.347 188.919 145.117 180.055 159.542 171.727C173.966 163.399 188.528 155.906 203 149.319C217.472 155.906 232.034 163.399 246.458 171.727C260.882 180.055 274.653 188.919 287.593 198.159C289.125 213.985 289.916 230.343 289.916 246.999C289.916 263.655 289.124 280.012 287.593 295.839C274.653 305.079 260.882 313.944 246.458 322.271ZM107.683 287.953C90.339 274.808 74.722 261.016 61.331 247C74.723 232.984 90.339 219.192 107.683 206.047C106.629 219.419 106.084 233.111 106.084 247C106.084 260.889 106.629 274.582 107.683 287.953ZM154.542 163.068C142.514 170.012 130.928 177.331 119.875 184.929C122.587 163.336 126.723 142.916 132.165 124.31C150.999 128.899 170.752 135.528 190.808 143.976C178.701 149.75 166.57 156.124 154.542 163.068ZM215.192 143.977C235.248 135.529 255.001 128.901 273.835 124.311C279.278 142.917 283.413 163.337 286.125 184.93C275.072 177.331 263.486 170.013 251.458 163.069C239.43 156.124 227.299 149.75 215.192 143.977ZM298.317 206.047C315.661 219.192 331.278 232.984 344.669 247C331.277 261.016 315.661 274.808 298.317 287.953C299.371 274.581 299.916 260.889 299.916 247C299.916 233.111 299.371 219.419 298.317 206.047ZM142.613 94.639C158.903 55.965 180.914 33.784 203 33.784C215.616 33.784 228.206 41.033 239.721 54.448C236.184 58.402 234.03 63.621 234.03 69.344C234.03 81.689 244.038 91.697 256.383 91.697C258.261 91.697 260.084 91.462 261.827 91.026C262.353 92.214 262.873 93.418 263.387 94.639C266.075 101.021 268.573 107.737 270.875 114.747C249.096 120.101 226.174 128.077 203 138.359C179.827 128.077 156.904 120.101 135.125 114.747C137.427 107.738 139.925 101.021 142.613 94.639ZM40.858 223.116C15.51 189.672 7.30602 159.52 18.349 140.392C27.17 125.113 48.221 116.953 77.561 116.953C84.95 116.953 92.868 117.471 101.245 118.523C108.116 119.386 115.181 120.581 122.403 122.092C116.15 143.63 111.596 167.469 108.914 192.679C88.422 207.606 70.054 223.47 54.528 239.654C49.609 234.156 45.041 228.635 40.858 223.116ZM101.245 375.477C59.605 380.706 29.393 372.735 18.349 353.608C11.46 341.675 12.063 325.451 19.645 306.815C21.843 307.538 24.189 307.934 26.629 307.934C38.974 307.934 48.982 297.926 48.982 285.581C48.982 279.202 46.305 273.451 42.019 269.379C45.885 264.362 50.055 259.344 54.527 254.346C70.053 270.53 88.421 286.394 108.913 301.321C111.595 326.531 116.149 350.37 122.402 371.908C115.181 373.419 108.116 374.614 101.245 375.477ZM263.387 399.361C247.097 438.035 225.086 460.216 203 460.216C180.914 460.216 158.903 438.035 142.613 399.361C139.925 392.979 137.427 386.263 135.125 379.253C151.154 375.313 167.802 369.954 184.716 363.296C188.761 369.04 195.44 372.797 202.999 372.797C210.558 372.797 217.237 369.04 221.282 363.296C238.196 369.954 254.844 375.312 270.873 379.253C268.573 386.262 266.075 392.979 263.387 399.361ZM387.65 353.608C376.607 372.735 346.394 380.707 304.754 375.477C297.883 374.614 290.818 373.419 283.596 371.908C289.849 350.37 294.403 326.531 297.085 301.321C317.577 286.394 335.945 270.53 351.471 254.346C356.391 259.845 360.958 265.366 365.141 270.885C390.489 304.329 398.693 334.48 387.65 353.608Z" fill="#2626BC"/>
<path opacity="0.1" d="M203 294.485C229.225 294.485 250.485 273.225 250.485 247C250.485 220.775 229.225 199.515 203 199.515C176.775 199.515 155.515 220.775 155.515 247C155.515 273.225 176.775 294.485 203 294.485Z" fill="#2626BC"/>
</g>
<path d="M203 270.485C229.225 270.485 250.485 249.225 250.485 223C250.485 196.775 229.225 175.515 203 175.515C176.775 175.515 155.515 196.775 155.515 223C155.515 249.225 176.775 270.485 203 270.485Z" fill="#02FFB3"/>
<path d="M218.67 216.871H206.503V193.017C206.503 191.905 205.009 191.542 204.499 192.53L186.388 227.58C186.023 228.286 186.536 229.129 187.331 229.129H199.498V252.983C199.498 254.095 200.992 254.458 201.502 253.47L219.613 218.42C219.978 217.713 219.465 216.871 218.67 216.871Z" fill="white"/>
<path d="M256.383 67.697C268.728 67.697 278.736 57.6892 278.736 45.344C278.736 32.9988 268.728 22.991 256.383 22.991C244.038 22.991 234.03 32.9988 234.03 45.344C234.03 57.6892 244.038 67.697 256.383 67.697Z" fill="#9FB0FE"/>
<path d="M26.63 283.934C38.9753 283.934 48.983 273.926 48.983 261.581C48.983 249.236 38.9753 239.228 26.63 239.228C14.2848 239.228 4.27704 249.236 4.27704 261.581C4.27704 273.926 14.2848 283.934 26.63 283.934Z" fill="#FF7EB8"/>
<path d="M203.726 349.013C216.071 349.013 226.079 339.005 226.079 326.66C226.079 314.315 216.071 304.307 203.726 304.307C191.381 304.307 181.373 314.315 181.373 326.66C181.373 339.005 191.381 349.013 203.726 349.013Z" fill="white"/>
<path d="M359.03 223.216C364.368 217.288 369.321 211.331 373.837 205.372C402.144 168.023 410.382 134.724 397.036 111.608C383.69 88.492 350.736 78.978 304.234 84.817C296.819 85.748 289.186 87.059 281.386 88.717C278.973 81.298 276.346 74.191 273.513 67.432C280.155 62.437 284.46 54.492 284.46 45.56C284.46 30.477 272.189 18.207 257.107 18.207C252.856 18.207 248.828 19.182 245.235 20.92C232.337 7.05 218.38 0 203.724 0C177.032 0 152.313 23.785 134.121 66.973C131.219 73.863 128.536 81.132 126.071 88.719C118.268 87.06 110.633 85.749 103.214 84.817C56.709 78.978 23.758 88.492 10.412 111.608C-2.934 134.724 5.305 168.024 33.611 205.372C38.128 211.332 43.083 217.292 48.424 223.222C44.497 227.579 40.785 231.951 37.301 236.325C34.215 235.116 30.862 234.444 27.353 234.444C12.271 234.444 0 246.715 0 261.797C0 270.167 3.783 277.667 9.724 282.688C2.193 302.966 2.405 320.956 10.412 334.824C20.925 353.032 43.586 362.869 75.947 363.272C76.644 363.28 77.343 363.285 78.047 363.285C92.715 363.285 108.874 361.39 126.073 357.72C128.537 365.305 131.219 372.571 134.12 379.459C152.311 422.647 177.03 446.432 203.723 446.432C230.416 446.432 255.134 422.647 273.326 379.459C276.227 372.571 278.909 365.305 281.373 357.72C298.571 361.39 314.73 363.285 329.399 363.284C330.101 363.284 330.803 363.28 331.499 363.271C363.86 362.868 386.521 353.031 397.034 334.823C410.38 311.707 402.141 278.407 373.835 241.059C369.321 235.101 364.368 229.144 359.03 223.216ZM305.481 94.739C347.117 89.509 377.333 97.481 388.377 116.608C399.42 135.735 391.216 165.887 365.868 199.332C361.685 204.851 357.118 210.372 352.198 215.871C336.674 199.689 318.309 183.828 297.821 168.902C295.143 143.671 290.597 119.836 284.341 98.305C291.556 96.795 298.615 95.601 305.481 94.739ZM176.91 332.053C161.717 337.82 146.965 342.456 132.891 345.904C127.449 327.299 123.313 306.879 120.601 285.287C131.654 292.885 143.24 300.204 155.268 307.148C162.552 311.354 169.987 315.399 177.41 319.223C176.74 321.589 176.374 324.082 176.374 326.66C176.373 328.506 176.56 330.309 176.91 332.053ZM203.726 309.307C213.294 309.307 221.079 317.091 221.079 326.66C221.079 336.229 213.295 344.013 203.726 344.013C194.157 344.013 186.373 336.228 186.373 326.66C186.373 317.092 194.158 309.307 203.726 309.307ZM230.043 319.225C237.452 315.408 244.889 311.36 252.184 307.148C264.212 300.204 275.798 292.885 286.851 285.287C284.139 306.877 280.004 327.295 274.563 345.899C260.488 342.453 245.736 337.82 230.542 332.053C230.892 330.309 231.078 328.506 231.078 326.66C231.079 324.082 230.712 321.591 230.043 319.225ZM247.184 298.487C240.073 302.593 232.825 306.539 225.604 310.262C220.609 303.615 212.662 299.307 203.726 299.307C194.791 299.307 186.843 303.615 181.849 310.261C174.615 306.531 167.37 302.587 160.268 298.487C145.844 290.159 132.073 281.295 119.133 272.055C117.601 256.229 116.81 239.871 116.81 223.215C116.81 206.565 117.601 190.212 119.132 174.391C132.089 165.133 145.863 156.26 160.268 147.943C174.692 139.615 189.254 132.122 203.726 125.535C218.198 132.122 232.76 139.615 247.184 147.943C261.613 156.274 275.388 165.142 288.332 174.385C289.857 190.191 290.642 206.543 290.642 223.215C290.642 239.871 289.85 256.228 288.319 272.055C275.379 281.295 261.608 290.16 247.184 298.487ZM108.409 264.169C91.069 251.026 75.455 237.238 62.065 223.224C75.46 209.214 91.083 195.419 108.408 182.281C107.355 195.647 106.81 209.333 106.81 223.215C106.81 237.105 107.355 250.798 108.409 264.169ZM120.6 161.153C123.312 139.557 127.448 119.134 132.891 100.527C151.725 105.116 171.477 111.745 191.534 120.193C179.427 125.966 167.296 132.34 155.268 139.285C143.254 146.22 131.665 153.542 120.6 161.153ZM215.918 120.193C235.978 111.744 255.735 105.114 274.573 100.524C280.02 119.126 284.152 139.543 286.861 161.152C275.805 153.551 264.216 146.23 252.185 139.284C240.156 132.34 228.025 125.966 215.918 120.193ZM299.05 182.268C316.391 195.412 332.005 209.201 345.395 223.216C332.003 237.232 316.387 251.024 299.043 264.169C300.097 250.797 300.642 237.105 300.642 223.216C300.642 209.315 300.099 195.627 299.05 182.268ZM274.461 45.56C274.461 55.128 266.677 62.913 257.108 62.913C247.539 62.913 239.754 55.129 239.754 45.56C239.754 35.991 247.539 28.207 257.108 28.207C266.677 28.207 274.461 35.992 274.461 45.56ZM143.339 70.855C159.629 32.181 181.64 10 203.726 10C215.212 10 226.442 15.684 237.142 26.892C232.565 31.784 229.755 38.348 229.755 45.56C229.755 60.642 242.026 72.913 257.109 72.913C259.684 72.913 262.174 72.548 264.539 71.879C267.068 77.955 269.421 84.33 271.602 90.963C249.823 96.317 226.9 104.293 203.727 114.575C180.554 104.293 157.631 96.317 135.852 90.963C138.153 83.954 140.651 77.237 143.339 70.855ZM41.584 199.332C16.236 165.888 8.032 135.736 19.075 116.608C30.118 97.48 60.329 89.512 101.971 94.739C108.842 95.602 115.907 96.797 123.129 98.308C116.874 119.852 112.319 143.699 109.638 168.916C89.174 183.832 70.788 199.698 55.259 215.875C50.338 210.376 45.769 204.852 41.584 199.332ZM27.356 244.444C36.924 244.444 44.709 252.228 44.709 261.797C44.709 271.366 36.925 279.15 27.356 279.15C17.787 279.15 10.003 271.365 10.003 261.797C10.003 252.229 17.788 244.444 27.356 244.444ZM76.075 353.273C39.894 352.823 25.109 340.273 19.076 329.824C12.796 318.948 12.628 304.435 18.537 287.682C21.306 288.628 24.271 289.149 27.357 289.149C42.439 289.149 54.71 276.878 54.71 261.796C54.71 253.835 51.289 246.659 45.842 241.656C48.815 237.957 51.962 234.259 55.265 230.57C70.789 246.751 89.154 262.611 109.642 277.535C112.324 302.748 116.879 326.59 123.133 348.13C106.177 351.698 90.335 353.454 76.075 353.273ZM264.113 375.577C247.823 414.251 225.812 436.432 203.726 436.432C181.64 436.432 159.629 414.251 143.339 375.577C140.651 369.194 138.152 362.477 135.85 355.466C150.22 351.921 165.232 347.19 180.656 341.327C185.517 348.945 194.038 354.012 203.725 354.012C213.412 354.012 221.933 348.945 226.794 341.327C242.218 347.19 257.231 351.921 271.6 355.466C269.299 362.477 266.801 369.194 264.113 375.577ZM388.376 329.824C377.446 348.755 351.347 353.024 331.377 353.273C317.119 353.446 301.277 351.69 284.322 348.126C290.575 326.588 295.129 302.748 297.811 277.537C318.303 262.61 336.671 246.746 352.197 230.562C357.117 236.061 361.684 241.582 365.867 247.101C391.215 280.545 399.419 310.696 388.376 329.824Z" fill="#2626BC"/>
<path d="M221.648 173.875C219.056 172.935 216.185 174.271 215.242 176.868C214.299 179.463 215.638 182.331 218.234 183.275C234.967 189.354 246.211 205.405 246.211 223.216C246.211 246.642 227.152 265.7 203.727 265.7C180.302 265.7 161.242 246.642 161.242 223.216C161.242 205.651 172.283 189.677 188.718 183.467C191.301 182.491 192.604 179.606 191.628 177.023C190.651 174.44 187.77 173.137 185.183 174.113C164.882 181.783 151.243 201.517 151.243 223.216C151.243 252.156 174.787 275.7 203.727 275.7C232.667 275.7 256.21 252.156 256.21 223.216C256.21 201.214 242.321 181.385 221.648 173.875Z" fill="#2626BC"/>
<path d="M65.669 51.239C64.39 51.239 63.109 50.751 62.134 49.775C60.181 47.822 60.181 44.656 62.134 42.704L65.461 39.376L60.46 36.203C59.178 35.39 58.335 34.039 58.168 32.53C58.001 31.021 58.528 29.519 59.602 28.445L67.343 20.703C69.296 18.751 72.461 18.751 74.414 20.703C76.367 22.656 76.367 25.821 74.415 27.774L71.087 31.101L76.089 34.274C77.371 35.087 78.214 36.438 78.381 37.947C78.548 39.456 78.02 40.959 76.946 42.032L69.204 49.774C68.229 50.751 66.948 51.239 65.669 51.239Z" fill="#FF7EB8"/>
<path d="M340.849 320.091C339.57 320.091 338.289 319.603 337.314 318.627C335.361 316.674 335.361 313.508 337.314 311.556L340.641 308.228L335.64 305.055C334.358 304.242 333.515 302.891 333.348 301.382C333.181 299.873 333.708 298.371 334.782 297.297L342.523 289.555C344.476 287.603 347.641 287.603 349.594 289.555C351.547 291.508 351.547 294.673 349.595 296.626L346.267 299.953L351.269 303.126C352.551 303.939 353.394 305.29 353.561 306.799C353.728 308.308 353.2 309.811 352.126 310.884L344.384 318.626C343.408 319.603 342.128 320.091 340.849 320.091Z" fill="#FF7EB8"/>
<path d="M78.77 156.272C76.008 156.272 73.77 154.033 73.77 151.272C73.77 147.963 71.079 145.272 67.77 145.272C65.008 145.272 62.77 143.033 62.77 140.272C62.77 137.511 65.008 135.272 67.77 135.272C71.079 135.272 73.77 132.581 73.77 129.272C73.77 126.511 76.008 124.272 78.77 124.272C81.532 124.272 83.77 126.511 83.77 129.272C83.77 132.581 86.461 135.272 89.77 135.272C92.532 135.272 94.77 137.511 94.77 140.272C94.77 143.033 92.532 145.272 89.77 145.272C86.461 145.272 83.77 147.963 83.77 151.272C83.77 154.033 81.531 156.272 78.77 156.272Z" fill="#01ECA5"/>
<path d="M100.213 425.105C97.451 425.105 95.213 422.866 95.213 420.105C95.213 416.796 92.522 414.105 89.213 414.105C86.451 414.105 84.213 411.866 84.213 409.105C84.213 406.344 86.451 404.105 89.213 404.105C92.522 404.105 95.213 401.414 95.213 398.105C95.213 395.344 97.451 393.105 100.213 393.105C102.975 393.105 105.213 395.344 105.213 398.105C105.213 401.414 107.904 404.105 111.213 404.105C113.975 404.105 116.213 406.344 116.213 409.105C116.213 411.866 113.975 414.105 111.213 414.105C107.904 414.105 105.213 416.796 105.213 420.105C105.213 422.866 102.975 425.105 100.213 425.105Z" fill="#6583FE"/>
<path d="M402.844 252.403C400.082 252.403 397.844 250.164 397.844 247.403C397.844 244.094 395.153 241.403 391.844 241.403C389.082 241.403 386.844 239.164 386.844 236.403C386.844 233.642 389.082 231.403 391.844 231.403C395.153 231.403 397.844 228.712 397.844 225.403C397.844 222.642 400.082 220.403 402.844 220.403C405.606 220.403 407.844 222.642 407.844 225.403C407.844 228.712 410.535 231.403 413.844 231.403C416.606 231.403 418.844 233.642 418.844 236.403C418.844 239.164 416.606 241.403 413.844 241.403C410.535 241.403 407.844 244.094 407.844 247.403C407.844 250.165 405.605 252.403 402.844 252.403Z" fill="#FF7EB8"/>
</svg>
