<svg width="50" height="50" viewBox="0 0 50 50" fill="none" xmlns="http://www.w3.org/2000/svg">
<path d="M48.9583 23.9583C49.5417 23.9583 50 24.4166 50 24.9999C50 25.5833 49.5417 26.0416 48.9583 26.0416H47.9167V23.9583H48.9583Z" fill="#424283"/>
<path d="M26.0417 23.9583H47.9167V26.0416H26.0417V23.9583Z" fill="#424283"/>
<path d="M44.7917 50H25C25.5833 50 26.0417 49.5417 26.0417 48.9583V47.9167H44.7917C46.5208 47.9167 47.9167 46.5208 47.9167 44.7917V26.0417H48.9583C49.5417 26.0417 50 25.5833 50 25V44.7917C50 47.6667 47.6667 50 44.7917 50Z" fill="#424283"/>
<path d="M50 5.20833V25C50 24.4167 49.5417 23.9583 48.9583 23.9583H47.9167V5.20833C47.9167 3.47917 46.5208 2.08333 44.7917 2.08333H26.0417V1.04167C26.0417 0.458333 25.5833 0 25 0H44.7917C47.6667 0 50 2.33333 50 5.20833Z" fill="#424283"/>
<path d="M41.6667 12.5C42.25 12.5 42.7083 12.9583 42.7083 13.5417C42.7083 14.125 42.25 14.5833 41.6667 14.5833H33.3333C32.75 14.5833 32.2917 14.125 32.2917 13.5417C32.2917 12.9583 32.75 12.5 33.3333 12.5H41.6667Z" fill="#424283"/>
<path d="M41.6667 33.3333C42.25 33.3333 42.7083 33.7916 42.7083 34.3749C42.7083 34.9583 42.25 35.4166 41.6667 35.4166H33.3333C32.75 35.4166 32.2917 34.9583 32.2917 34.3749C32.2917 33.7916 32.75 33.3333 33.3333 33.3333H41.6667Z" fill="#424283"/>
<path d="M41.6667 39.5833C42.25 39.5833 42.7083 40.0416 42.7083 40.6249C42.7083 41.2083 42.25 41.6666 41.6667 41.6666H33.3333C32.75 41.6666 32.2917 41.2083 32.2917 40.6249C32.2917 40.0416 32.75 39.5833 33.3333 39.5833H41.6667Z" fill="#424283"/>
<path d="M26.0417 47.9166V48.9583C26.0417 49.5416 25.5833 50 25 50C24.4167 50 23.9583 49.5416 23.9583 48.9583V47.9166H26.0417Z" fill="#424283"/>
<path d="M23.9583 26.0417H26.0417V47.9167H23.9583V26.0417Z" fill="#424283"/>
<path d="M23.9583 23.9583H26.0417V26.0416H23.9583V23.9583Z" fill="#424283"/>
<path d="M23.9583 2.08325H26.0417V23.9583H23.9583V2.08325Z" fill="#424283"/>
<path d="M26.0417 1.04167V2.08333H23.9583V1.04167C23.9583 0.458333 24.4167 0 25 0C25.5833 0 26.0417 0.458333 26.0417 1.04167Z" fill="#424283"/>
<path d="M2.08334 23.9583H23.9583V26.0416H2.08334V23.9583Z" fill="#424283"/>
<path d="M16.6667 12.5C17.25 12.5 17.7083 12.9583 17.7083 13.5417C17.7083 14.125 17.25 14.5833 16.6667 14.5833H13.5417V12.5H16.6667Z" fill="#424283"/>
<path d="M16.3542 39.8958C16.7708 40.2917 16.7708 40.9583 16.3542 41.3542C16.1667 41.5625 15.8958 41.6667 15.625 41.6667C15.3542 41.6667 15.0833 41.5625 14.8958 41.3542L12.5 38.9583L13.9583 37.5L16.3542 39.8958Z" fill="#424283"/>
<path d="M14.8958 33.6458C15.2917 33.2291 15.9583 33.2291 16.3542 33.6458C16.7708 34.0416 16.7708 34.7083 16.3542 35.1041L13.9583 37.4999L12.5 36.0416L14.8958 33.6458Z" fill="#424283"/>
<path d="M11.0356 37.4979L12.494 36.0395L13.9524 37.4979L12.494 38.9563L11.0356 37.4979Z" fill="#424283"/>
<path d="M13.5417 14.5833V17.7083C13.5417 18.2916 13.0833 18.7499 12.5 18.7499C11.9167 18.7499 11.4583 18.2916 11.4583 17.7083V14.5833H13.5417Z" fill="#424283"/>
<path d="M11.4583 12.5H13.5417V14.5833H11.4583V12.5Z" fill="#424283"/>
<path d="M13.5417 9.37492V12.4999H11.4583V9.37492C11.4583 8.79159 11.9167 8.33325 12.5 8.33325C13.0833 8.33325 13.5417 8.79159 13.5417 9.37492Z" fill="#424283"/>
<path d="M12.5 36.0416L11.0417 37.4999L8.64584 35.1041C8.22918 34.7083 8.22918 34.0416 8.64584 33.6458C9.04168 33.2291 9.70834 33.2291 10.1042 33.6458L12.5 36.0416Z" fill="#424283"/>
<path d="M11.4583 12.5V14.5833H8.33334C7.75 14.5833 7.29167 14.125 7.29167 13.5417C7.29167 12.9583 7.75 12.5 8.33334 12.5H11.4583Z" fill="#424283"/>
<path d="M10.1042 41.3542C9.91668 41.5625 9.64584 41.6667 9.37501 41.6667C9.10418 41.6667 8.83334 41.5625 8.64584 41.3542C8.22918 40.9583 8.22918 40.2917 8.64584 39.8958L11.0417 37.5L12.5 38.9583L10.1042 41.3542Z" fill="#424283"/>
<path d="M2.08333 23.9583V26.0416H1.04166C0.458326 26.0416 -7.62939e-06 25.5833 -7.62939e-06 24.9999C-7.62939e-06 24.4166 0.458326 23.9583 1.04166 23.9583H2.08333Z" fill="#424283"/>
<path d="M0 5.20833C0 2.33333 2.33333 0 5.20833 0H25C24.4167 0 23.9583 0.458333 23.9583 1.04167V2.08333H5.20833C3.47917 2.08333 2.08333 3.47917 2.08333 5.20833V23.9583H1.04167C0.458333 23.9583 0 24.4167 0 25V5.20833Z" fill="#424283"/>
<path d="M2.08333 44.7917C2.08333 46.5208 3.47916 47.9167 5.20833 47.9167H23.9583V48.9583C23.9583 49.5417 24.4167 50 25 50H5.20833C2.33333 50 -7.62939e-06 47.6667 -7.62939e-06 44.7917V25C-7.62939e-06 25.5833 0.458326 26.0417 1.04166 26.0417H2.08333V44.7917Z" fill="#424283"/>
</svg>
