<svg width="60" height="60" viewBox="0 0 60 60" fill="none" xmlns="http://www.w3.org/2000/svg">
<path d="M37.3777 42.045C44.9587 38.9026 48.557 30.2096 45.4146 22.6286C42.2723 15.0475 33.5792 11.4493 25.9982 14.5916C18.4172 17.734 14.8189 26.427 17.9613 34.008C21.1036 41.5891 29.7967 45.1873 37.3777 42.045Z" fill="#424283"/>
<path d="M49.9379 14.1391C52.7547 14.1391 55.0464 11.8474 55.0464 9.03046C55.0464 6.21349 52.7547 3.9218 49.9379 3.9218C47.121 3.9218 44.8292 6.21349 44.8292 9.03046C44.8292 11.8474 47.1209 14.1391 49.9379 14.1391Z" fill="#424283"/>
<path d="M16.7104 8.53777C21.0454 5.25297 26.2202 3.51667 31.6751 3.51667C35.6208 3.51667 39.3932 4.416 42.8872 6.18969L44.4791 3.05388C40.4871 1.02745 36.1791 0 31.6751 0C25.447 0 19.5379 1.98305 14.5866 5.73487C9.79745 9.36383 6.22252 14.5187 4.52057 20.25L7.89188 21.2511C9.38201 16.2326 12.5138 11.7177 16.7104 8.53777Z" fill="#424283"/>
<path d="M56.2039 14.1532L53.1604 15.9152C55.3343 19.67 56.4833 23.9612 56.4833 28.3249C56.4833 33.7798 54.747 38.9546 51.4622 43.2897C48.2823 47.4863 43.7673 50.6181 38.7489 52.1084L39.7498 55.4796C45.4813 53.7776 50.6362 50.2028 54.2651 45.4136C58.0169 40.4622 60 34.553 60 28.3249C60 23.3433 58.6872 18.4428 56.2039 14.1532Z" fill="#424283"/>
<path d="M7.89177 35.3986L4.52057 36.3996C5.85386 40.8897 8.31834 45.0229 11.6478 48.3522C14.9771 51.6816 19.1103 54.1462 23.6004 55.4794L24.6015 52.1082C20.6708 50.9409 17.0513 48.7823 14.1344 45.8655C11.2177 42.9486 9.05895 39.3293 7.89177 35.3986Z" fill="#424283"/>
<path d="M31.6751 49.7827C28.8583 49.7827 26.5666 52.0744 26.5666 54.8913C26.5666 57.7082 28.8583 60 31.6751 60C34.492 60 36.7838 57.7083 36.7838 54.8913C36.7838 52.0744 34.492 49.7827 31.6751 49.7827Z" fill="#424283"/>
<path d="M5.10867 33.4336C7.9301 33.4336 10.2173 31.1463 10.2173 28.3249C10.2173 25.5035 7.9301 23.2162 5.10867 23.2162C2.28723 23.2162 0 25.5035 0 28.3249C0 31.1463 2.28723 33.4336 5.10867 33.4336Z" fill="#424283"/>
</svg>
