<svg width="55" height="55" viewBox="0 0 55 55" fill="none" xmlns="http://www.w3.org/2000/svg">
<path d="M52.8516 25.3516H2.14844C0.961856 25.3516 0 26.3134 0 27.5C0 28.6866 0.961856 29.6484 2.14844 29.6484H52.8516C54.0381 29.6484 55 28.6866 55 27.5C55 26.3134 54.0381 25.3516 52.8516 25.3516Z" fill="#424283"/>
<path d="M52.8516 8.16406H2.14844C0.961856 8.16406 0 9.12592 0 10.3125C0 11.4991 0.961856 12.4609 2.14844 12.4609H52.8516C54.0381 12.4609 55 11.4991 55 10.3125C55 9.12592 54.0381 8.16406 52.8516 8.16406Z" fill="#424283"/>
<path d="M52.8516 42.5391H2.14844C0.961856 42.5391 0 43.5009 0 44.6875C0 45.8741 0.961856 46.8359 2.14844 46.8359H52.8516C54.0381 46.8359 55 45.8741 55 44.6875C55 43.5009 54.0381 42.5391 52.8516 42.5391Z" fill="#424283"/>
</svg>
