<svg width="55" height="55" viewBox="0 0 55 55" fill="none" xmlns="http://www.w3.org/2000/svg">
<path d="M48.9844 48.9844V6.01562C48.9834 5.10426 48.6209 4.23051 47.9764 3.58608C47.332 2.94164 46.4582 2.57915 45.5469 2.57812H9.45312C8.54176 2.57915 7.66801 2.94164 7.02358 3.58608C6.37914 4.23051 6.01665 5.10426 6.01562 6.01562V34.375H7.73438V31.7969H16.3281V34.375H18.0469V31.7969H26.6406V34.375H28.3594V31.7969H36.9531V36.9531H31.7969V38.6719H36.9531V43.8281H31.7969V45.5469H36.9531V48.9844C36.9541 49.8957 37.3166 50.7695 37.9611 51.4139C38.6055 52.0584 39.4793 52.4209 40.3906 52.4219H45.5469C46.4582 52.4209 47.332 52.0584 47.9764 51.4139C48.6209 50.7695 48.9834 49.8957 48.9844 48.9844ZM36.9531 16.3281H28.3594V11.1719H36.9531V16.3281ZM38.6719 11.1719H47.2656V16.3281H38.6719V11.1719ZM28.3594 9.45312V4.29688H36.9531V9.45312H28.3594ZM26.6406 9.45312H18.0469V4.29688H26.6406V9.45312ZM26.6406 11.1719V16.3281H18.0469V11.1719H26.6406ZM16.3281 16.3281H7.73438V11.1719H16.3281V16.3281ZM16.3281 18.0469V23.2031H7.73438V18.0469H16.3281ZM18.0469 18.0469H26.6406V23.2031H18.0469V18.0469ZM28.3594 18.0469H36.9531V23.2031H28.3594V18.0469ZM38.6719 18.0469H47.2656V23.2031H38.6719V18.0469ZM47.2656 24.9219V30.0781H38.6719V24.9219H47.2656ZM47.2656 6.01562V9.45312H38.6719V4.29688H45.5469C46.0025 4.29742 46.4394 4.47867 46.7616 4.80088C47.0838 5.12309 47.2651 5.55995 47.2656 6.01562ZM9.45312 4.29688H16.3281V9.45312H7.73438V6.01562C7.73492 5.55995 7.91617 5.12309 8.23838 4.80088C8.56059 4.47867 8.99745 4.29742 9.45312 4.29688ZM7.73438 30.0781V24.9219H16.3281V30.0781H7.73438ZM18.0469 30.0781V24.9219H26.6406V30.0781H18.0469ZM28.3594 30.0781V24.9219H36.9531V30.0781H28.3594ZM38.6719 31.7969H47.2656V36.9531H38.6719V31.7969ZM47.2656 38.6719V43.8281H38.6719V38.6719H47.2656ZM38.6719 48.9844V45.5469H47.2656V48.9844C47.2651 49.44 47.0838 49.8769 46.7616 50.1991C46.4394 50.5213 46.0025 50.7026 45.5469 50.7031H40.3906C39.935 50.7026 39.4981 50.5213 39.1759 50.1991C38.8537 49.8769 38.6724 49.44 38.6719 48.9844Z" fill="#424283"/>
<path d="M9.45312 6.01562H11.1719V7.73438H9.45312V6.01562Z" fill="#424283"/>
<path d="M12.8906 6.01562H14.6094V7.73438H12.8906V6.01562Z" fill="#424283"/>
<path d="M19.7656 6.01562H24.9219V7.73438H19.7656V6.01562Z" fill="#424283"/>
<path d="M30.0781 6.01562H35.2344V7.73438H30.0781V6.01562Z" fill="#424283"/>
<path d="M40.3906 6.01562H45.5469V7.73438H40.3906V6.01562Z" fill="#424283"/>
<path d="M30.0781 48.9843V39.5312C30.0771 38.6198 29.7146 37.746 29.0702 37.1016C28.4257 36.4572 27.552 36.0947 26.6406 36.0937H14.1059L12.6389 34.6266C12.5591 34.5468 12.4644 34.4835 12.3601 34.4403C12.2559 34.3971 12.1441 34.3749 12.0312 34.3749C11.9184 34.3749 11.8066 34.3971 11.7024 34.4403C11.5981 34.4835 11.5034 34.5468 11.4236 34.6266L9.95661 36.0937H6.01562C5.10426 36.0947 4.23051 36.4572 3.58608 37.1016C2.94164 37.746 2.57915 38.6198 2.57812 39.5312V48.9843C2.57915 49.8957 2.94164 50.7694 3.58608 51.4138C4.23051 52.0583 5.10426 52.4208 6.01562 52.4218H26.6406C27.552 52.4208 28.4257 52.0583 29.0702 51.4138C29.7146 50.7694 30.0771 49.8957 30.0781 48.9843ZM4.29688 48.9843V39.5312C4.29742 39.0755 4.47867 38.6386 4.80088 38.3164C5.12309 37.9942 5.55995 37.813 6.01562 37.8124H10.3125C10.4254 37.8124 10.5371 37.7902 10.6414 37.747C10.7456 37.7038 10.8404 37.6405 10.9202 37.5607L12.0312 36.4495L13.1423 37.5607C13.2221 37.6405 13.3169 37.7038 13.4211 37.747C13.5254 37.7902 13.6371 37.8124 13.75 37.8124H26.6406C27.0963 37.813 27.5332 37.9942 27.8554 38.3164C28.1776 38.6386 28.3588 39.0755 28.3594 39.5312V48.9843C28.3588 49.44 28.1776 49.8768 27.8554 50.199C27.5332 50.5212 27.0963 50.7025 26.6406 50.703H6.01562C5.55995 50.7025 5.12309 50.5212 4.80088 50.199C4.47867 49.8768 4.29742 49.44 4.29688 48.9843Z" fill="#424283"/>
<path d="M8.59375 40.3906H10.3125V42.1094H8.59375V40.3906Z" fill="#424283"/>
<path d="M12.0312 40.3906H25.7812V42.1094H12.0312V40.3906Z" fill="#424283"/>
<path d="M6.875 43.8281H25.7812V45.5469H6.875V43.8281Z" fill="#424283"/>
<path d="M6.875 47.2656H22.3438V48.9844H6.875V47.2656Z" fill="#424283"/>
</svg>
